C:\Users\Nicos\Documents\OpenSimProjects\SprintingProject\Study1\PredictiveResults\IC_pred_Sprinting_optimum_28-October-2023__01-01-41_p02_maxVel_01___HTD_Minus_2_GRF.mot
version=1
nRows=5
nColumns=127
inDegrees=yes
endheader
time	ground_force_vx	ground_force_vy	ground_force_vz	ground_force_px	ground_force_py	ground_force_pz	ground_torque_x	ground_torque_y	ground_torque_z	1_ground_force_vx	1_ground_force_vy	1_ground_force_vz	1_ground_force_px	1_ground_force_py	1_ground_force_pz	1_ground_torque_x	1_ground_torque_y	1_ground_torque_z	2_ground_force_vx	2_ground_force_vy	2_ground_force_vz	2_ground_force_px	2_ground_force_py	2_ground_force_pz	2_ground_torque_x	2_ground_torque_y	2_ground_torque_z	3_ground_force_vx	3_ground_force_vy	3_ground_force_vz	3_ground_force_px	3_ground_force_py	3_ground_force_pz	3_ground_torque_x	3_ground_torque_y	3_ground_torque_z	4_ground_force_vx	4_ground_force_vy	4_ground_force_vz	4_ground_force_px	4_ground_force_py	4_ground_force_pz	4_ground_torque_x	4_ground_torque_y	4_ground_torque_z	5_ground_force_vx	5_ground_force_vy	5_ground_force_vz	5_ground_force_px	5_ground_force_py	5_ground_force_pz	5_ground_torque_x	5_ground_torque_y	5_ground_torque_z	6_ground_force_vx	6_ground_force_vy	6_ground_force_vz	6_ground_force_px	6_ground_force_py	6_ground_force_pz	6_ground_torque_x	6_ground_torque_y	6_ground_torque_z	7_ground_force_vx	7_ground_force_vy	7_ground_force_vz	7_ground_force_px	7_ground_force_py	7_ground_force_pz	7_ground_torque_x	7_ground_torque_y	7_ground_torque_z	8_ground_force_vx	8_ground_force_vy	8_ground_force_vz	8_ground_force_px	8_ground_force_py	8_ground_force_pz	8_ground_torque_x	8_ground_torque_y	8_ground_torque_z	9_ground_force_vx	9_ground_force_vy	9_ground_force_vz	9_ground_force_px	9_ground_force_py	9_ground_force_pz	9_ground_torque_x	9_ground_torque_y	9_ground_torque_z	10_ground_force_vx	10_ground_force_vy	10_ground_force_vz	10_ground_force_px	10_ground_force_py	10_ground_force_pz	10_ground_torque_x	10_ground_torque_y	10_ground_torque_z	11_ground_force_vx	11_ground_force_vy	11_ground_force_vz	11_ground_force_px	11_ground_force_py	11_ground_force_pz	11_ground_torque_x	11_ground_torque_y	11_ground_torque_z	12_ground_force_vx	12_ground_force_vy	12_ground_force_vz	12_ground_force_px	12_ground_force_py	12_ground_force_pz	12_ground_torque_x	12_ground_torque_y	12_ground_torque_z	13_ground_force_vx	13_ground_force_vy	13_ground_force_vz	13_ground_force_px	13_ground_force_py	13_ground_force_pz	13_ground_torque_x	13_ground_torque_y	13_ground_torque_z
0.105371	336.265500	799.728501	-72.091567	0.408925	-0.018495	0.440450	0.000000	0.000000	0.000000	131.571871	342.054434	28.663586	0.364185	-0.011308	0.456542	0.000000	0.000000	0.000000	72.885405	243.939418	23.920254	0.332491	-0.009730	0.442914	0.000000	0.000000	0.000000	124.393051	386.920115	19.224203	0.337346	-0.013237	0.421849	0.000000	0.000000	0.000000	-0.015602	0.044354	0.008211	0.248596	0.006444	0.461357	0.000000	0.000000	0.000000	-23.881441	118.244871	30.063856	0.304635	-0.006269	0.434188	0.000000	0.000000	0.000000	-0.004215	0.010806	0.002508	0.193212	0.007577	0.399287	0.000000	0.000000	0.000000	-0.000000	0.000000	-0.000000	0.453600	0.182615	0.063401	0.000000	0.000000	0.000000	-0.000000	0.000000	-0.000000	0.441660	0.206045	0.052052	0.000000	0.000000	0.000000	-0.000000	0.000000	-0.000000	0.429681	0.218018	0.063243	0.000000	0.000000	0.000000	-0.000000	0.000000	-0.000000	0.423004	0.212497	0.081951	0.000000	0.000000	0.000000	-0.000000	0.000000	-0.000000	0.403053	0.261463	0.050360	0.000000	0.000000	0.000000	-0.000000	0.000000	-0.000000	0.414737	0.230210	0.072303	0.000000	0.000000	0.000000	-0.000000	0.000000	0.000000	0.354963	0.278979	0.108542	0.000000	0.000000	0.000000
0.107361	383.571858	816.667511	-53.936315	0.408003	-0.018880	0.440643	0.000000	0.000000	0.000000	126.336321	303.246367	35.789526	0.363966	-0.010566	0.456502	0.000000	0.000000	0.000000	49.636743	176.838418	24.893455	0.332927	-0.007995	0.442931	0.000000	0.000000	0.000000	96.254606	305.502847	23.413752	0.337542	-0.011563	0.421853	0.000000	0.000000	0.000000	-0.000375	0.000996	0.000182	0.250566	0.010094	0.461168	0.000000	0.000000	0.000000	-14.005267	58.076035	13.349730	0.305468	-0.003861	0.434119	0.000000	0.000000	0.000000	-0.000020	0.000045	0.000010	0.195632	0.012675	0.398871	0.000000	0.000000	0.000000	-0.000000	0.000000	-0.000000	0.492477	0.180040	0.063771	0.000000	0.000000	0.000000	-0.000000	0.000000	-0.000000	0.479182	0.203243	0.052065	0.000000	0.000000	0.000000	-0.000000	0.000000	-0.000000	0.466457	0.215047	0.062985	0.000000	0.000000	0.000000	-0.000000	0.000000	-0.000000	0.459979	0.209476	0.081703	0.000000	0.000000	0.000000	-0.000000	0.000000	-0.000000	0.437180	0.258006	0.049360	0.000000	0.000000	0.000000	-0.000000	0.000000	-0.000000	0.450668	0.227020	0.071775	0.000000	0.000000	0.000000	-0.000000	0.000000	-0.000000	0.387510	0.274913	0.106932	0.000000	0.000000	0.000000
0.108803	413.390982	820.825349	-39.051028	0.407140	-0.019087	0.440763	0.000000	0.000000	0.000000	118.576170	270.860451	37.343193	0.363728	-0.009908	0.456435	0.000000	0.000000	0.000000	33.686546	129.843872	23.078076	0.333326	-0.006569	0.442945	0.000000	0.000000	0.000000	75.866884	246.397057	25.280039	0.337759	-0.010178	0.421856	0.000000	0.000000	0.000000	-0.000018	0.000044	0.000008	0.252255	0.012958	0.461032	0.000000	0.000000	0.000000	-6.206020	23.808093	5.185130	0.306215	-0.001926	0.434068	0.000000	0.000000	0.000000	-0.000000	0.000001	0.000000	0.197772	0.016644	0.398563	0.000000	0.000000	0.000000	-0.000000	0.000000	-0.000000	0.520793	0.178130	0.064194	0.000000	0.000000	0.000000	-0.000000	0.000000	-0.000000	0.506505	0.201147	0.052199	0.000000	0.000000	0.000000	-0.000000	0.000000	-0.000000	0.493235	0.212824	0.062916	0.000000	0.000000	0.000000	-0.000000	0.000000	-0.000000	0.486912	0.207223	0.081652	0.000000	0.000000	0.000000	-0.000000	0.000000	-0.000000	0.462034	0.255395	0.048705	0.000000	0.000000	0.000000	-0.000000	0.000000	-0.000000	0.476840	0.224630	0.071499	0.000000	0.000000	0.000000	-0.000000	0.000000	-0.000000	0.411260	0.271854	0.105833	0.000000	0.000000	0.000000
0.109433	423.888528	819.692133	-31.481303	0.406717	-0.019149	0.440806	0.000000	0.000000	0.000000	113.848688	255.597483	36.827889	0.363611	-0.009583	0.456397	0.000000	0.000000	0.000000	28.129314	110.328222	20.724979	0.333523	-0.005902	0.442949	0.000000	0.000000	0.000000	67.560296	221.129041	25.700214	0.337873	-0.009529	0.421855	0.000000	0.000000	0.000000	-0.000004	0.000010	0.000002	0.253068	0.014265	0.460973	0.000000	0.000000	0.000000	-3.421889	13.182773	2.931273	0.306582	-0.001032	0.434045	0.000000	0.000000	0.000000	-0.000000	0.000000	0.000000	0.198816	0.018449	0.398428	0.000000	0.000000	0.000000	-0.000000	0.000000	-0.000000	0.533195	0.177285	0.064416	0.000000	0.000000	0.000000	-0.000000	0.000000	-0.000000	0.518472	0.200217	0.052290	0.000000	0.000000	0.000000	-0.000000	0.000000	-0.000000	0.504962	0.211836	0.062916	0.000000	0.000000	0.000000	-0.000000	0.000000	-0.000000	0.498711	0.206224	0.081663	0.000000	0.000000	0.000000	-0.000000	0.000000	-0.000000	0.472922	0.254229	0.048439	0.000000	0.000000	0.000000	-0.000000	0.000000	-0.000000	0.488305	0.223567	0.071407	0.000000	0.000000	0.000000	-0.000000	0.000000	-0.000000	0.421678	0.270490	0.105373	0.000000	0.000000	0.000000
0.111423	460.495020	808.663116	-4.746324	0.405156	-0.019232	0.440889	0.000000	0.000000	0.000000	97.701956	204.583397	35.950385	0.363170	-0.008400	0.456224	0.000000	0.000000	0.000000	11.913193	54.267144	12.522270	0.334249	-0.003615	0.442960	0.000000	0.000000	0.000000	42.139429	144.055611	21.711675	0.338320	-0.007293	0.421846	0.000000	0.000000	0.000000	-0.000000	0.000000	0.000000	0.255973	0.018631	0.460800	0.000000	0.000000	0.000000	-0.599157	2.113687	0.438896	0.307918	0.001996	0.433972	0.000000	0.000000	0.000000	-0.000000	0.000000	0.000000	0.202596	0.024440	0.398022	0.000000	0.000000	0.000000	-0.000000	0.000000	-0.000000	0.572513	0.174587	0.065247	0.000000	0.000000	0.000000	-0.000000	0.000000	-0.000000	0.556415	0.197228	0.052687	0.000000	0.000000	0.000000	-0.000000	0.000000	-0.000000	0.542153	0.208659	0.063025	0.000000	0.000000	0.000000	-0.000000	0.000000	-0.000000	0.536137	0.203017	0.081813	0.000000	0.000000	0.000000	-0.000000	0.000000	-0.000000	0.507470	0.250452	0.047684	0.000000	0.000000	0.000000	-0.000000	0.000000	-0.000000	0.524680	0.220142	0.071223	0.000000	0.000000	0.000000	-0.000000	0.000000	-0.000000	0.454790	0.266077	0.104015	0.000000	0.000000	0.000000
